<mxfile host="app.diagrams.net" modified="2024-06-21T07:05:34.569Z" agent="Mozilla/5.0 (Macintosh; Intel Mac OS X 10_15_7) AppleWebKit/605.1.15 (KHTML, like Gecko) Version/17.4.1 Safari/605.1.15" etag="ysBXFjTLsnfUbe36fCn1" version="24.5.5" type="device">
  <diagram name="Page-1" id="b2K95PayLdJR69nA5XqD">
    <mxGraphModel dx="1434" dy="748" grid="1" gridSize="10" guides="1" tooltips="1" connect="1" arrows="1" fold="1" page="0" pageScale="1" pageWidth="827" pageHeight="1169" math="0" shadow="0">
      <root>
        <mxCell id="0" />
        <mxCell id="1" parent="0" />
        <mxCell id="S4rob5-7sl3NFfz3E2Pt-37" style="edgeStyle=orthogonalEdgeStyle;rounded=0;orthogonalLoop=1;jettySize=auto;html=1;exitX=0.5;exitY=0;exitDx=0;exitDy=0;entryX=0.5;entryY=1;entryDx=0;entryDy=0;" edge="1" parent="1" source="S4rob5-7sl3NFfz3E2Pt-1" target="S4rob5-7sl3NFfz3E2Pt-13">
          <mxGeometry relative="1" as="geometry" />
        </mxCell>
        <mxCell id="S4rob5-7sl3NFfz3E2Pt-1" value="" style="whiteSpace=wrap;html=1;dashed=1;dashPattern=8 8;fillColor=none;strokeWidth=1;" vertex="1" parent="1">
          <mxGeometry x="60" y="460" width="380" height="380" as="geometry" />
        </mxCell>
        <mxCell id="S4rob5-7sl3NFfz3E2Pt-3" value="" style="rounded=0;whiteSpace=wrap;html=1;" vertex="1" parent="1">
          <mxGeometry x="75" y="470" width="165" height="100" as="geometry" />
        </mxCell>
        <mxCell id="S4rob5-7sl3NFfz3E2Pt-35" style="edgeStyle=orthogonalEdgeStyle;rounded=0;orthogonalLoop=1;jettySize=auto;html=1;exitX=1;exitY=0.5;exitDx=0;exitDy=0;entryX=0;entryY=0.5;entryDx=0;entryDy=0;" edge="1" parent="1" source="S4rob5-7sl3NFfz3E2Pt-7" target="S4rob5-7sl3NFfz3E2Pt-25">
          <mxGeometry relative="1" as="geometry">
            <Array as="points">
              <mxPoint x="280" y="520" />
              <mxPoint x="280" y="635" />
            </Array>
          </mxGeometry>
        </mxCell>
        <mxCell id="S4rob5-7sl3NFfz3E2Pt-7" value="&lt;b&gt;Add item component&lt;/b&gt;&lt;br&gt;&lt;div&gt;[&lt;i&gt;Component: Python function&lt;/i&gt;]&lt;/div&gt;&lt;div&gt;Allows users to add task to the board&lt;/div&gt;" style="text;html=1;align=center;verticalAlign=middle;whiteSpace=wrap;rounded=0;" vertex="1" parent="1">
          <mxGeometry x="80" y="480" width="160" height="80" as="geometry" />
        </mxCell>
        <mxCell id="S4rob5-7sl3NFfz3E2Pt-8" value="" style="rounded=0;whiteSpace=wrap;html=1;" vertex="1" parent="1">
          <mxGeometry x="580" y="555" width="205" height="150" as="geometry" />
        </mxCell>
        <mxCell id="S4rob5-7sl3NFfz3E2Pt-9" value="&lt;b&gt;Trello&lt;/b&gt;&lt;br&gt;&lt;div&gt;[&lt;i&gt;Software system&lt;/i&gt;]&lt;/div&gt;&lt;div&gt;Atlassian project management board - stores users tasks and their status&lt;/div&gt;" style="text;html=1;align=center;verticalAlign=middle;whiteSpace=wrap;rounded=0;" vertex="1" parent="1">
          <mxGeometry x="602.5" y="590" width="160" height="80" as="geometry" />
        </mxCell>
        <mxCell id="S4rob5-7sl3NFfz3E2Pt-10" value="Makes API calls to" style="text;html=1;align=center;verticalAlign=middle;whiteSpace=wrap;rounded=0;" vertex="1" parent="1">
          <mxGeometry x="470" y="610" width="80" height="30" as="geometry" />
        </mxCell>
        <mxCell id="S4rob5-7sl3NFfz3E2Pt-13" value="" style="rounded=0;whiteSpace=wrap;html=1;" vertex="1" parent="1">
          <mxGeometry x="151.25" y="250" width="197.5" height="150" as="geometry" />
        </mxCell>
        <mxCell id="S4rob5-7sl3NFfz3E2Pt-14" value="&lt;b&gt;Web framework&lt;/b&gt;&lt;br&gt;&lt;div&gt;[&lt;i&gt;Container: Flask&lt;/i&gt;]&lt;/div&gt;&lt;div&gt;Provides a web server for running the application on and making API calls&lt;/div&gt;" style="text;html=1;align=center;verticalAlign=middle;whiteSpace=wrap;rounded=0;" vertex="1" parent="1">
          <mxGeometry x="167.5" y="285" width="160" height="80" as="geometry" />
        </mxCell>
        <mxCell id="S4rob5-7sl3NFfz3E2Pt-15" value="&lt;div&gt;&lt;b&gt;Multi-page web application&amp;nbsp;&lt;/b&gt;[&lt;i&gt;Container&lt;/i&gt;]&lt;/div&gt;" style="text;html=1;align=center;verticalAlign=middle;whiteSpace=wrap;rounded=0;" vertex="1" parent="1">
          <mxGeometry x="20" y="790" width="330" height="70" as="geometry" />
        </mxCell>
        <mxCell id="S4rob5-7sl3NFfz3E2Pt-20" value="" style="rounded=0;whiteSpace=wrap;html=1;" vertex="1" parent="1">
          <mxGeometry x="75" y="585" width="165" height="100" as="geometry" />
        </mxCell>
        <mxCell id="S4rob5-7sl3NFfz3E2Pt-33" style="edgeStyle=orthogonalEdgeStyle;rounded=0;orthogonalLoop=1;jettySize=auto;html=1;exitX=1;exitY=0.5;exitDx=0;exitDy=0;entryX=0;entryY=0.5;entryDx=0;entryDy=0;" edge="1" parent="1" source="S4rob5-7sl3NFfz3E2Pt-21" target="S4rob5-7sl3NFfz3E2Pt-25">
          <mxGeometry relative="1" as="geometry" />
        </mxCell>
        <mxCell id="S4rob5-7sl3NFfz3E2Pt-21" value="&lt;b&gt;Update item status component&lt;/b&gt;&lt;br&gt;&lt;div&gt;[&lt;i&gt;Component: Python function&lt;/i&gt;]&lt;/div&gt;&lt;div&gt;Allows users to add item to the board&lt;/div&gt;" style="text;html=1;align=center;verticalAlign=middle;whiteSpace=wrap;rounded=0;" vertex="1" parent="1">
          <mxGeometry x="80" y="595" width="160" height="80" as="geometry" />
        </mxCell>
        <mxCell id="S4rob5-7sl3NFfz3E2Pt-22" value="" style="rounded=0;whiteSpace=wrap;html=1;" vertex="1" parent="1">
          <mxGeometry x="75" y="700" width="165" height="100" as="geometry" />
        </mxCell>
        <mxCell id="S4rob5-7sl3NFfz3E2Pt-34" style="edgeStyle=orthogonalEdgeStyle;rounded=0;orthogonalLoop=1;jettySize=auto;html=1;exitX=1;exitY=0.5;exitDx=0;exitDy=0;entryX=0;entryY=0.5;entryDx=0;entryDy=0;" edge="1" parent="1" source="S4rob5-7sl3NFfz3E2Pt-23" target="S4rob5-7sl3NFfz3E2Pt-25">
          <mxGeometry relative="1" as="geometry">
            <Array as="points">
              <mxPoint x="280" y="750" />
              <mxPoint x="280" y="635" />
            </Array>
          </mxGeometry>
        </mxCell>
        <mxCell id="S4rob5-7sl3NFfz3E2Pt-23" value="&lt;b&gt;Delete item component&lt;/b&gt;&lt;br&gt;&lt;div&gt;[&lt;i&gt;Component: Python function&lt;/i&gt;]&lt;/div&gt;&lt;div&gt;Allows users to delete item from the board&lt;/div&gt;" style="text;html=1;align=center;verticalAlign=middle;whiteSpace=wrap;rounded=0;" vertex="1" parent="1">
          <mxGeometry x="77.5" y="710" width="160" height="80" as="geometry" />
        </mxCell>
        <mxCell id="S4rob5-7sl3NFfz3E2Pt-24" style="edgeStyle=orthogonalEdgeStyle;rounded=0;orthogonalLoop=1;jettySize=auto;html=1;exitX=1;exitY=0.5;exitDx=0;exitDy=0;entryX=0;entryY=0.633;entryDx=0;entryDy=0;entryPerimeter=0;" edge="1" parent="1" source="S4rob5-7sl3NFfz3E2Pt-1" target="S4rob5-7sl3NFfz3E2Pt-8">
          <mxGeometry relative="1" as="geometry" />
        </mxCell>
        <mxCell id="S4rob5-7sl3NFfz3E2Pt-25" value="" style="rounded=0;whiteSpace=wrap;html=1;" vertex="1" parent="1">
          <mxGeometry x="301.25" y="562" width="110" height="145" as="geometry" />
        </mxCell>
        <mxCell id="S4rob5-7sl3NFfz3E2Pt-26" value="&lt;b&gt;Requests&lt;/b&gt;&lt;br&gt;&lt;div&gt;[&lt;i&gt;Component: Python package&lt;/i&gt;]&lt;/div&gt;&lt;div&gt;Send requests to Trello&lt;/div&gt;" style="text;html=1;align=center;verticalAlign=middle;whiteSpace=wrap;rounded=0;" vertex="1" parent="1">
          <mxGeometry x="316.25" y="593.5" width="80" height="80" as="geometry" />
        </mxCell>
        <mxCell id="S4rob5-7sl3NFfz3E2Pt-31" value="Uses" style="text;html=1;align=center;verticalAlign=middle;whiteSpace=wrap;rounded=0;" vertex="1" parent="1">
          <mxGeometry x="221.25" y="670" width="80" height="30" as="geometry" />
        </mxCell>
      </root>
    </mxGraphModel>
  </diagram>
</mxfile>
